<?xml version="1.0" encoding="UTF-8"?>
<svg id="Layer_1" data-name="Layer 1" xmlns="http://www.w3.org/2000/svg" version="1.1" viewBox="0 0 500 150">
  <defs>
    <style>
      .cls-1 {
        fill: #000;
        stroke-width: 0px;
      }
    </style>
  </defs>
  <g>
    <path class="cls-1" d="M90.15,97.63c.31,3.76.91,8.56,1.25,11.44-2.83,2.08-5.32,3.65-7.83,4.92-2.99,1.41-6.22,2.17-9.59,2.45-9.54.8-20.53-2.55-27.62-10.79-3.23-3.8-6.77-12.47-7.94-19.43-1.84-10.9-1.7-17.99,2.23-29.09,4.77-12.53,11.51-16.88,21.03-17.61,13.13-1,20.44,5.22,24.81,15.43-1.94.54-7.61,3.15-15.48,5.37-2.43-5.12-4.99-5.84-6.34-5.73-2.51.21-4.97-.18-8.3,7.49-2.46,5.67-2.89,13.16-1.37,21.82,2.7,15.32,10.63,18.82,18.94,16.92l.19-.02-.16-1.93c-.41-4.91-.58-6.94-1.04-15.92-.29.02-.28.12-.76.16l-8.13.02-.92-13.04c11.43-2.51,10.8-1.6,24.98-4,.94,5.45.62,8.34.66,9.89l.45,5.39-.19-.94c.36,6.66.74,12.36,1.15,17.17Z"/>
    <path class="cls-1" d="M107.75,58c6.66-3.21,13.31-3.44,20.2,0s11.52,9.32,13.13,17.12c1.65,7.48.04,13.45-3.03,19.6-5.33,10.65-18.23,17.63-31.63,10.92-9.64-4.82-17.95-18.27-10.78-33.51,2.89-5.55,6.11-11.06,12.12-14.14ZM113.61,95.07c4.32,2.16,8.75-1.99,10.03-4.54,3.16-6.31,3.27-17.61-2.16-20.33s-9.8,1.05-11.3,4.04c-.78,1.55-1.39,3.6-2,5.93-1.05,5.15,1.11,12.74,5.43,14.9Z"/>
    <path class="cls-1" d="M211.88,115.92c-2.19,0-5.15-.67-8.78-1.91v-5.82c.19-1.62-.48-3.53-.48-5.34,0-10.69-1.34-26.71-2.38-33.58-4.87,9.25-10.49,28.33-12.78,35.39h-7.73l-15.07-25.09c-.57,12.12-.48,21.18-.95,32.44-4.48.57-7.54.86-8.97.86-2.48,0-5.63-.67-9.25-2l.1-5.63,4.58-58.86,10.02-7.25,21.18,37.59c2.48-8.87,12.88-29.57,17.65-37.11l13.83,4.67.57,5.15c.38,2.67.86,5.72,1.53,9.54l1.05,6.49c1.81,12.4,4.29,34.35,5.06,42.84l.29,5.63c-2.67.95-5.72,2-9.45,2Z"/>
    <path class="cls-1" d="M262.31,99.04c-4.2,5.44-9.64,8.4-16.79,8.4s-13.45-2.96-18.03-8.78c-4.48-5.53-5.63-11.16-5.63-17.55,0-11.07,7.82-22.23,21.75-22.23,10.02,0,22.51,7.73,22.9,23.37-.1,5.82-.48,11.73-4.2,16.79ZM242.47,72.71c-3.72,0-5.34,4.39-5.34,6.58,0,5.44,3.82,13.26,8.49,13.26s6.39-4.1,6.39-6.68c0-1.34-.29-2.96-.67-4.77-1.05-3.91-5.15-8.4-8.87-8.4Z"/>
    <path class="cls-1" d="M311.23,106.21l-14.84-1.13c.36-5.15.49-10.76.88-16.6.25-3.76.44-9.31.44-13.51,0-2.48-.65-3.39-2.37-4.02-2.73-.15-7.26,4.69-10.03,8.22.19,6.01.1,8.59,0,11.35-.1,2.29-.48,16.31-.1,17.84l-14.93-.05s-.62-19.51-.52-25.71c.1-5.63-1.53-25.28-1.53-25.28,3.15-.76,9.35-2,15.65-1.34,0,0,.38,7.63.38,8.78,2.29-3.53,7.63-8.4,12.4-9.44,2-.48,5.72,0,7.44.67,8.2,3.53,9.05,10.25,9.05,17.41,0,3.24.03,6.23-.23,10.75-.2,3.48-1.16,12.28-1.7,22.07Z"/>
    <path class="cls-1" d="M362.6,109.1c-7.46,3.07-14.4,6.54-14.4,6.54-1.05-1.85-2.03-3.3-3.56-6.78-2.38-5.44-5.86-13.28-8.21-20.48l-1.66,1.97c-.87,11.1-.92,7.94-1.64,21.91-6.7.93-10.51-.16-15.66-.64.43-5.92.33-11.69.5-17.62.13-4.63.46-12.91-.72-26.77-1.25-15-1.7-18.94-2.41-32.12,3.85-1.65,7.01-2.35,9.58-2.3,1.05.02,3.63-.31,8,.62,0,0-.57,5.05-.65,9.53.73,12.13.79,11.19,1.62,23.23.06,2.1.21,4.11.37,6.02,1.85-1.87,3.99-4.32,7.02-7.98l10.84-13.35c4.23,3.42,7.14,7.29,11.12,12.47,0,0-6.24,5.78-8.38,8.03-3.21,3.09-5.11,4.47-7.36,7.76.92,2.02,2.21,4.53,3.39,7.51,3.23,5.88,3.79,8.45,8.01,15.31"/>
    <path class="cls-1" d="M396.58,97.58c1.97,2.79,4.27,6.13,5.54,9.25,0,0-6.97,4.57-15.07,5.5-12.47,1.44-21.31-5.97-23.56-10.68-4.75-9.92-4.87-18.75-1.86-27.04,5.27-10.75,12.12-12.81,21.22-12.49s18.32,9.05,19.28,27.76l-25.89,4.33c2.09,6.42,5.96,8.53,20.35,3.37ZM386.25,82.42c-.56-3.77-1.48-7.83-5.58-7.81-5.6.02-6,6.73-5.58,9.01,3.63-.47,7.34-.74,11.16-1.19Z"/>
    <path class="cls-1" d="M445.78,50.88c-3.69,9.19-20.76,55.29-23.25,60.39-1.77,3.64-3.01,8.12-6.94,12.97-6.89-.1-8.57-.48-11.54-4.04.51-1.17,1.41-3.8,1.75-4.68v.1c1.58-4.29,2.54-5.9,4.06-11.24,2.38-7.11,3.93-11.78,6.41-18.8-5.55-3.51-10.31-8.41-13.98-14.22-4.29-6.74-6.93-16.43-7.43-23.67,4.42-2.92,11.25-2.15,16.54-1.49,1.38,7.66,3.34,13.76,5.78,18.02,1.38,2.5,2.95,4.9,4.38,6.64,4.15-11.22,8.6-22.36,11.88-30.38,6.23.42,11.21,2.24,14.36,5.6l-2.12,4.8h.1Z"/>
  </g>
  <path class="cls-1" d="M458.6,85.64c-8.13,0-11.34-7.77-11.34-14.56s6.21-12.99,13.31-12.99c6.34,0,10.18,7.37,10.18,12.81,0,6.43-4.38,14.74-12.14,14.74ZM459.89,62.2c-5.27,0-9.24,4.55-9.24,9.51,0,4.33,2.37,9.64,7.23,9.64,2.37,0,4.55-1.03,6.12-2.59l-5.13-2.77.62,2.72-3.84.85-2.9-12.55s2.95-1.74,4.82-2.23c.8-.22,1.7-.4,2.54-.4,1.7,0,3.26.58,4.02,2.28.18.49.22,1.03.22,1.52,0,1.92-1.56,3.57-3.13,4.69l4.91,2.5c.4-1.03.62-2.01.62-3.08,0-4.47-1.61-10.09-6.88-10.09ZM456.81,68.31c.13.45.49,1.52.67,2.32,1.03-.27,3.04-1.07,2.9-2.32h.04c-.31-.85-1.52-.71-3.62,0Z"/>
</svg>